<!DOCTYPE svg PUBLIC "-//W3C//DTD SVG 1.1//EN" "http://www.w3.org/Graphics/SVG/1.1/DTD/svg11.dtd">
<!-- Uploaded to: SVG Repo, www.svgrepo.com, Transformed by: SVG Repo Mixer Tools -->
<svg fill="#000000" width="800px" height="800px" viewBox="0 0 512 512" id="icon" version="1.1" xml:space="preserve" xmlns="http://www.w3.org/2000/svg" xmlns:xlink="http://www.w3.org/1999/xlink">
<g id="SVGRepo_bgCarrier" stroke-width="0"/>
<g id="SVGRepo_tracerCarrier" stroke-linecap="round" stroke-linejoin="round"/>
<g id="SVGRepo_iconCarrier"> <g> <path d="M256.0013733,100.3933029c-85.8009949,0-155.606781,69.8059006-155.606781,155.6044922 c0,55.0177917,28.7266006,103.4213867,71.9419022,131.0990906c0.1375122,0.1035156,0.22052,0.2514954,0.370697,0.342804 c0.1620026,0.0996094,0.3392029,0.1411133,0.5070038,0.2204895c23.9962921,15.1433105,52.3753967,23.9465027,82.7871857,23.9465027 c85.8007202,0,155.6065063-69.8056946,155.6065063-155.6088867 C411.6078796,170.1992035,341.8020935,100.3933029,256.0013733,100.3933029z M261.2992859,111.1242981 c75.7497253,2.7387009,136.8392029,63.828598,139.578186,139.5751953h-55.8927002 c-2.6611023-44.9809875-38.7045898-81.026886-83.6854858-83.6879883V111.1242981z M261.2992859,177.6076965 c39.1394043,2.6277008,70.4620056,33.9502106,73.0892944,73.0917969h-44.8190918 c-2.2846985-14.5158997-13.7542114-25.9859009-28.2702026-28.2700958V177.6076965z M279.4285889,255.9978027 c0,12.9188843-10.5108032,23.4324036-23.4272156,23.4324036c-11.0906982,0-20.3569946-7.7680969-22.7719879-18.1345215h12.7578888 c2.9258118,0,5.298111-2.369873,5.298111-5.2978821c0-2.597702,2.1158905-4.7136078,4.7159882-4.7136078 c2.5997925,0,4.7160034,2.1159058,4.7160034,4.7136078c0,2.6021118-2.1162109,4.7185059-4.7160034,4.7185059 c-2.9259949,0-5.2980957,2.3693848-5.2980957,5.2978821c0,2.9284058,2.3721008,5.2980957,5.2980957,5.2980957 c8.4438171,0,15.3119202-6.8708801,15.3119202-15.3144836c0-8.4438019-6.868103-15.3097992-15.3119202-15.3097992 c-6.5812988,0-12.2051849,4.1750031-14.3678894,10.0114899h-8.4040985 c2.4149933-10.3652954,11.6812897-18.1293945,22.7719879-18.1293945 C268.9177856,232.5700989,279.4285889,243.0783997,279.4285889,255.9978027z M222.4301758,250.6994934h-44.8187866 c2.6272888-39.1415863,33.9498901-70.4640961,73.0918884-73.0917969v44.821701 C236.1852875,224.7135925,224.7151794,236.1829071,222.4301758,250.6994934z M250.7032776,111.1242981v55.887207 c-44.980896,2.6611023-81.0269928,38.7070007-83.6880951,83.6879883H111.125 C113.8641815,174.9528961,174.9535828,113.862999,250.7032776,111.1242981z M250.7032776,400.8761902 c-24.7055969-0.8930054-47.8439941-7.9884949-67.9194946-19.7836914l1.344696-2.2049866 c1.5211029-2.499115,0.7321014-5.7588196-1.7669983-7.2796021c-2.5066986-1.5368958-5.7610016-0.7349243-7.2821045,1.7638855 l-1.2375946,2.0298157c-36.5688934-25.242218-61.0065994-66.816925-62.7167816-114.1059265h55.8901825 c1.6068115,27.1630249,15.3697052,51.0454102,35.9638214,66.3315125l-4.2860107,7.0288086 c-1.5213165,2.4987793-0.7321167,5.7583008,1.7666931,7.27948c0.8613892,0.5279236,1.8134918,0.7762146,2.7525024,0.7762146 c1.7878113,0,3.531189-0.9054871,4.5296936-2.5405884l4.0948944-6.7141113 c11.5890045,6.6337891,24.7887115,10.6936035,38.8665009,11.5266113V400.8761902z M216.2613831,323.7637024 c-0.2169037-1.5112915-1.008606-2.9251099-2.4143066-3.7810059c-1.3058929-0.8017883-2.8063965-0.9365845-4.1689911-0.5561829 c-18.2149963-13.339325-30.4654999-34.2727051-32.0666962-58.1308289h44.8187866 c1.1448212,7.2736206,4.5611115,13.8012085,9.5512085,18.7795105l-1.8003082,2.9504089 c-1.5237885,2.4942017-0.7346954,5.7587891,1.7617035,7.2797852c0.8614044,0.5276184,1.8135071,0.776123,2.7550049,0.776123 c1.7850952,0,3.5287018-0.900116,4.5270996-2.5405273l1.3686981-2.2426758 c4.6320953,2.3654785,9.8591003,3.7277832,15.4077911,3.7277832c16.9544067,0,31.0108032-12.479187,33.5681152-28.7304077 h44.8190918c-2.7453918,40.9006042-36.8053894,73.360321-78.387207,73.360321 C241.4957886,334.6560059,227.9407806,330.6395874,216.2613831,323.7637024z M261.2992859,400.8761902v-55.8925781 c44.980896-2.6613159,81.0243835-38.7070007,83.6854858-83.6879272h55.8927002 C398.1384888,337.0476074,337.0490112,398.137207,261.2992859,400.8761902z"/> <path d="M229.5911865,294.1704102c-2.5041046-1.5368958-5.7611084-0.7295227-7.2821045,1.7641907l-7.8720856,12.908905 c-1.5213165,2.4989929-0.7321167,5.758606,1.7669983,7.2797852c0.8611908,0.5273132,1.813385,0.7759094,2.7522888,0.7759094 c1.7877197,0,3.5312042-0.905304,4.5298004-2.5405884l7.871994-12.9085999 C232.8791809,298.9508972,232.0901794,295.6914063,229.5911865,294.1704102z"/> <path d="M152.2910004,288.6706848c-0.8641205-2.7473755-1.6272125-5.5620728-2.2635193-8.3559875 c-0.6519012-2.8559875-3.4870911-4.6410828-6.3457947-3.9838867c-2.8506927,0.6470032-4.6358032,3.4873047-3.9864044,6.3432922 c0.7010956,3.0680847,1.5367126,6.1567078,2.4860077,9.1730957c0.7114868,2.2612,2.80159,3.7096863,5.0522919,3.7096863 c0.5278015,0,1.0630951-0.0773926,1.5910034-0.2431946C151.6157837,294.4342957,153.1680908,291.459198,152.2910004,288.6706848z"/> <path d="M198.1030884,345.7951965c-1.2884064-0.7879028-2.7689056-0.9378052-4.1174011-0.578186 c-14.741684-10.2680054-26.7976837-24.0002136-34.9426117-40.0107117c-1.321991-2.6073914-4.5142975-3.6375122-7.121994-2.3232117 c-2.6100769,1.3298035-3.6473999,4.5166016-2.3204956,7.1245117c8.8064117,17.3175964,21.7823029,32.2103882,37.6401978,43.4230957 l-4.2920074,7.0375977c-1.5210876,2.4989929-0.732193,5.7585144,1.7669067,7.2795105 c0.8614044,0.5278015,1.8134003,0.7763977,2.7525024,0.7763977c1.7875977,0,3.5312042-0.905304,4.5296021-2.5405884 l6.8050995-11.1585999c0.008194-0.0115051,0.0193939-0.0203247,0.0271149-0.0323181 c0.0070801-0.0112,0.0068817-0.0236816,0.0134735-0.0348816l1.0266113-1.6831055 C201.3910828,350.5757141,200.602005,347.3161926,198.1030884,345.7951965z"/> <path d="M170.6661835,188.6544952c2.3229065-2.9440918,4.8271942-5.7943878,7.4449005-8.4798889 c2.0411987-2.0957031,1.9972992-5.4533997-0.0980072-7.4916992c-2.0954895-2.0440063-5.4483948-2.0076141-7.4917908,0.0926971 c-2.8715973,2.9494934-5.6215973,6.0845032-8.1696014,9.3080902c-1.8134003,2.2972107-1.4228058,5.6289063,0.8743134,7.4450989 c0.9727783,0.7656097,2.1290894,1.1384125,3.2802887,1.1384125 C168.0712891,190.6672058,169.6208801,189.9788055,170.6661835,188.6544952z"/> <path d="M159.9069977,194.4076996c-2.532608-1.4743958-5.7740021-0.5997925-7.2407074,1.9302063 c-1.4151001,2.4472961-2.7475128,4.9562988-3.991806,7.5070953c-1.2830963,2.6334991-0.1889038,5.8050995,2.4421997,7.0883026 c0.7474976,0.3620911,1.5366974,0.5325012,2.3152008,0.5325012c1.963501,0,3.8493958-1.0913086,4.7677917-2.9748077 c1.1357117-2.3332977,2.3488007-4.6149902,3.6397095-6.8448029 C163.3036804,199.1107941,162.4394836,195.8721008,159.9069977,194.4076996z"/> <path d="M148.4210815,217.8090973c-2.7911987-0.8432922-5.7585907,0.7346039-6.6070862,3.533905 c-0.8098145,2.669693-1.5315094,5.3858032-2.1524048,8.1383972c-0.6467133,2.8509064,1.1434937,5.6912079,3.9967957,6.3381958 c0.3932953,0.0879059,0.786499,0.1291046,1.1746063,0.1291046c2.4186859,0,4.6045837-1.6660004,5.1606903-4.1289063 c0.5693207-2.5040894,1.2236938-4.9718933,1.9611053-7.4034882 C152.8032837,221.6172028,151.2226868,218.6575012,148.4210815,217.8090973z"/> <path d="M256.0013733,66.9957962c-104.2173767,0-189.0042877,84.7845078-189.0042877,189.0020142 c0,104.2170105,84.786911,189.0064087,189.0042877,189.0064087c104.2146301,0,189.0014954-84.7893982,189.0014954-189.0064087 C445.0028687,151.780304,360.2160034,66.9957962,256.0013733,66.9957962z M256.0013733,434.4083862 c-98.3733673,0-178.4080811-80.0345764-178.4080811-178.4105835c0-98.371109,80.0347214-178.4057922,178.4080811-178.4057922 s178.405304,80.0346909,178.405304,178.4057922C434.4066772,354.3738098,354.3746643,434.4083862,256.0013733,434.4083862z"/> </g> </g>
</svg>